<svg width="197" height="199" viewBox="0 0 197 199" fill="none" xmlns="http://www.w3.org/2000/svg">
<path d="M181 0C189.837 0 197 7.16344 197 16V36C197 44.8366 189.837 52 181 52H64C57.3726 52 52 57.3726 52 64V90C52 95.5228 47.5228 100 42 100H10C4.47715 100 8.05322e-08 95.5228 0 90V10C1.28852e-06 4.47715 4.47715 9.66416e-08 10 0H181Z" fill="#049756"/>
<path d="M181 75C189.836 75 197 82.1634 197 91V111C197 119.837 189.836 127 181 127H138.956C136.569 127 134.28 127.948 132.592 129.636L66.2586 195.97C64.3833 197.845 61.8395 198.898 59.1874 198.898H13.2508C4.32679 198.898 -0.127792 188.096 6.202 181.806L113 75.6846V75.6846C113.438 75.2462 114.033 75 114.653 75H181Z" fill="#049756"/>
</svg>
